<svg xmlns="http://www.w3.org/2000/svg" width="64" height="64" viewBox="0 0 64 64">
  <defs>
    <linearGradient id="dining-gradient" x1="0%" y1="0%" x2="100%" y2="100%">
      <stop offset="0%" style="stop-color:#f43f5e;stop-opacity:1" />
      <stop offset="100%" style="stop-color:#fb7185;stop-opacity:1" />
    </linearGradient>
  </defs>
  
  <!-- Plate -->
  <circle cx="32" cy="32" r="22" fill="#f1f5f9" stroke="#64748b" stroke-width="2" />
  <circle cx="32" cy="32" r="18" fill="none" stroke="#64748b" stroke-width="1" />
  
  <!-- Fork -->
  <path d="M18,15 L14,50" stroke="#334155" stroke-width="2" stroke-linecap="round" />
  <path d="M18,15 L18,25" stroke="#334155" stroke-width="2" stroke-linecap="round" />
  <path d="M14,15 L14,25" stroke="#334155" stroke-width="2" stroke-linecap="round" />
  <path d="M22,15 L22,25" stroke="#334155" stroke-width="2" stroke-linecap="round" />
  <path d="M14,25 C14,29 22,29 22,25" fill="none" stroke="#334155" stroke-width="2" />
  
  <!-- Knife -->
  <path d="M50,15 C46,15 42,30 42,30 L46,30 C46,30 46,50 46,50" stroke="#334155" stroke-width="2" fill="none" />
  <path d="M50,15 C54,15 54,30 46,30" fill="none" stroke="#334155" stroke-width="2" />
  
  <!-- Food -->
  <circle cx="32" cy="32" r="10" fill="url(#dining-gradient)" />
  <path d="M28,32 C28,28 36,28 36,32" fill="#fecaca" stroke="#be123c" stroke-width="1" />
</svg>