<svg xmlns="http://www.w3.org/2000/svg" width="64" height="64" viewBox="0 0 64 64">
  <defs>
    <linearGradient id="transport-gradient" x1="0%" y1="0%" x2="100%" y2="100%">
      <stop offset="0%" style="stop-color:#f97316;stop-opacity:1" />
      <stop offset="100%" style="stop-color:#fb923c;stop-opacity:1" />
    </linearGradient>
  </defs>
  
  <!-- Car Body -->
  <path d="M10,35 L10,45 L16,45 L16,48 L20,48 L20,45 L44,45 L44,48 L48,48 L48,45 L54,45 L54,35 L48,20 L16,20 L10,35 Z" fill="url(#transport-gradient)" stroke="#9a3412" stroke-width="2" />
  
  <!-- Windows -->
  <path d="M20,25 L16,35 L48,35 L44,25 Z" fill="#bae6fd" stroke="#9a3412" stroke-width="1" />
  
  <!-- Wheels -->
  <circle cx="20" cy="45" r="6" fill="#1e293b" stroke="#0f172a" stroke-width="1" />
  <circle cx="20" cy="45" r="3" fill="#94a3b8" />
  <circle cx="44" cy="45" r="6" fill="#1e293b" stroke="#0f172a" stroke-width="1" />
  <circle cx="44" cy="45" r="3" fill="#94a3b8" />
  
  <!-- Headlights -->
  <rect x="12" y="35" width="4" height="4" rx="1" fill="#fef08a" />
  <rect x="48" y="35" width="4" height="4" rx="1" fill="#fef08a" />
</svg>