<svg xmlns="http://www.w3.org/2000/svg" width="64" height="64" viewBox="0 0 64 64">
  <defs>
    <linearGradient id="utilities-gradient" x1="0%" y1="0%" x2="100%" y2="100%">
      <stop offset="0%" style="stop-color:#3b82f6;stop-opacity:1" />
      <stop offset="100%" style="stop-color:#60a5fa;stop-opacity:1" />
    </linearGradient>
  </defs>
  
  <!-- Lightbulb Shape -->
  <path d="M32,10 C22,10 14,18 14,28 C14,34 18,38 20,40 C22,42 22,44 22,44 L42,44 C42,44 42,42 44,40 C46,38 50,34 50,28 C50,18 42,10 32,10 Z" fill="url(#utilities-gradient)" stroke="#1e40af" stroke-width="2"/>
  
  <!-- Bulb Base -->
  <rect x="24" y="44" width="16" height="6" rx="2" fill="#94a3b8" stroke="#1e40af" stroke-width="1"/>
  <rect x="26" y="50" width="12" height="4" rx="1" fill="#94a3b8" stroke="#1e40af" stroke-width="1"/>
  
  <!-- Lightning Bolt Inside -->
  <path d="M32,18 L26,32 L34,32 L28,46" fill="none" stroke="#fef08a" stroke-width="3" stroke-linecap="round" stroke-linejoin="round"/>
</svg>