<svg xmlns="http://www.w3.org/2000/svg" width="64" height="64" viewBox="0 0 64 64">
  <defs>
    <linearGradient id="vegetable-gradient" x1="0%" y1="0%" x2="100%" y2="100%">
      <stop offset="0%" style="stop-color:#22c55e;stop-opacity:1" />
      <stop offset="100%" style="stop-color:#16a34a;stop-opacity:1" />
    </linearGradient>
  </defs>
  
  <!-- Tomato -->
  <circle cx="22" cy="30" r="12" fill="#dc2626" stroke="#7f1d1d" stroke-width="1" />
  <path d="M22,18 C22,18 20,14 22,12 C24,10 28,14 22,18" fill="#15803d" stroke="#14532d" stroke-width="1" />
  
  <!-- Carrot -->
  <path d="M42,20 L50,40 L34,40 Z" fill="#ea580c" stroke="#9a3412" stroke-width="1" />
  <path d="M42,16 C42,16 38,18 42,20 C46,22 46,16 42,16" fill="#15803d" stroke="#14532d" stroke-width="1" />
  <path d="M42,20 C42,20 40,30 42,30 C44,30 42,20 42,20" fill="#fdba74" stroke="#9a3412" stroke-width="0.5" />
  
  <!-- Broccoli -->
  <circle cx="18" cy="48" r="8" fill="#15803d" stroke="#14532d" stroke-width="1" />
  <circle cx="22" cy="44" r="4" fill="#16a34a" stroke="#14532d" stroke-width="1" />
  <circle cx="16" cy="42" r="5" fill="#16a34a" stroke="#14532d" stroke-width="1" />
  <rect x="17" y="48" width="2" height="8" fill="#5b21b6" />
  
  <!-- Bell Pepper -->
  <path d="M48,48 C48,52 42,56 36,52 C30,48 36,44 40,44 C44,44 48,44 48,48 Z" fill="#facc15" stroke="#ca8a04" stroke-width="1" />
  <path d="M44,44 C44,44 46,40 44,40 C42,40 44,44 44,44" fill="#15803d" stroke="#14532d" stroke-width="1" />
</svg>